<svg width="24" height="23" viewBox="0 0 24 23" fill="none" xmlns="http://www.w3.org/2000/svg">
<g id="Black">
<path id="Vector" d="M8.27729 0.0622501C7.83037 0.187944 7.45329 0.471924 7.14137 0.928152C6.92723 1.24472 6.79222 1.54267 6.5129 2.31546C6.2615 2.9998 6.10322 3.32568 5.99615 3.38155C5.84717 3.46069 5.59578 3.48862 4.67867 3.53052C3.42637 3.59104 2.86772 3.75397 2.4208 4.20555C2.09493 4.52677 1.92733 4.93179 1.89475 5.44854C1.86681 5.94666 1.92268 6.30513 2.16941 7.16638C2.26718 7.51088 2.3696 7.92521 2.38822 8.08349L2.43012 8.36747L2.19269 8.59558C2.06234 8.72128 1.72715 8.99595 1.45248 9.2101C0.805383 9.70822 0.349155 10.197 0.153628 10.5974C0.00465539 10.8953 0 10.9326 0 11.4447C0 11.9614 0.00465539 11.994 0.158283 12.3059C0.349155 12.697 0.935734 13.3022 1.60611 13.805C1.84819 13.9912 2.13217 14.224 2.22993 14.3264C2.41149 14.5126 2.41149 14.5126 2.38356 14.8059C2.36494 14.9688 2.28114 15.3412 2.19269 15.6345C1.9413 16.4958 1.87147 16.9008 1.89475 17.4082C1.91337 17.7853 1.9413 17.9064 2.06234 18.1624C2.23924 18.5488 2.52788 18.8375 2.91428 19.0237C3.38447 19.2564 3.69173 19.3123 4.70195 19.3589C5.57716 19.4008 5.89838 19.4427 6.02408 19.5171C6.10322 19.5683 6.29875 19.9734 6.45703 20.4203C6.95516 21.8495 7.32759 22.3988 8.00728 22.7154C8.55196 22.9714 9.14319 22.9435 9.82754 22.6223C9.98582 22.5478 10.4001 22.2964 10.7446 22.0636C11.0938 21.8262 11.4942 21.5841 11.6338 21.519L11.8945 21.4026L12.1459 21.5143C12.2856 21.5795 12.6859 21.8216 13.0351 22.0543C14.0593 22.7387 14.3805 22.869 15.0369 22.8737C15.4094 22.8737 15.4885 22.8597 15.7632 22.7294C16.4568 22.3988 16.7827 21.9379 17.2762 20.5739C17.4996 19.9547 17.6812 19.573 17.765 19.5171C17.8907 19.4427 18.2119 19.4008 19.0871 19.3589C19.6458 19.3356 20.1299 19.289 20.2975 19.2425C21.0144 19.0563 21.4753 18.7071 21.7267 18.1671C21.8431 17.9203 21.8757 17.7807 21.8943 17.4408C21.9222 16.9427 21.8664 16.5842 21.6196 15.723C21.5219 15.3785 21.4195 14.9642 21.4008 14.8059L21.3589 14.5219L21.5964 14.2938C21.7267 14.1681 22.0619 13.8934 22.3366 13.6793C22.9837 13.1765 23.4399 12.6877 23.6354 12.292C23.7798 11.994 23.7891 11.9521 23.7891 11.4447C23.7891 10.9372 23.7798 10.8953 23.6354 10.5974C23.4353 10.1877 22.9744 9.70357 22.2667 9.14958C21.9502 8.9075 21.6243 8.63283 21.5359 8.53972C21.3822 8.38144 21.3776 8.37213 21.4055 8.08349C21.4241 7.92055 21.5079 7.54812 21.5964 7.25483C21.8478 6.39358 21.9176 5.98856 21.8943 5.48113C21.8757 5.10404 21.8478 4.983 21.7267 4.72695C21.4753 4.18227 21.0144 3.83312 20.2975 3.6469C20.1299 3.605 19.6504 3.55379 19.1104 3.53052C18.1933 3.48862 17.9419 3.46069 17.7929 3.38155C17.6858 3.32568 17.5276 2.9998 17.2762 2.31546C16.9968 1.54267 16.8618 1.24472 16.6477 0.928152C16.0704 0.0901814 15.2324 -0.193796 14.2781 0.13208C13.9708 0.239155 13.3144 0.616241 12.8489 0.956085C12.6953 1.06781 12.4159 1.23541 12.2297 1.32852L11.8945 1.49611L11.5547 1.32852C11.3731 1.23541 11.0752 1.05385 10.8936 0.923498C10.4234 0.583654 9.87875 0.271742 9.52494 0.141392C9.13854 0.00172997 8.61248 -0.0355129 8.27729 0.0622501ZM16.0285 8.08815C16.5127 8.33954 16.7222 8.87025 16.508 9.32648C16.3823 9.58718 11.2381 14.7174 11.0007 14.8198C10.7959 14.9036 10.591 14.9083 10.335 14.8385C10.1813 14.7966 9.92064 14.5591 8.78473 13.4325C7.38345 12.0359 7.19258 11.7985 7.19258 11.4726C7.19258 10.9326 7.63485 10.4717 8.14694 10.4671C8.51472 10.4671 8.74283 10.63 9.72977 11.6262L10.6609 12.562L12.8722 10.3507C14.2688 8.9587 15.144 8.11608 15.2464 8.07418C15.4745 7.97642 15.819 7.98107 16.0285 8.08815Z" fill="black"/>
</g>
</svg>
