<svg width="40" height="29" viewBox="0 0 40 29" fill="none" xmlns="http://www.w3.org/2000/svg">
<g id="Black">
<path id="Vector" d="M7.68979 0.133511C6.83679 0.298887 6.05343 0.577417 5.20043 0.995213C1.15304 3.02326 -0.901114 7.75827 0.378383 12.1451C1.29231 15.3221 3.71204 17.7157 6.93254 18.647L7.64627 18.8559L6.95865 19.9788C6.34937 20.9971 4.63467 23.5909 3.4161 25.3492C2.71107 26.3762 2.67625 26.9594 3.28554 27.6122C3.59888 27.9517 3.6424 27.9691 4.20817 28.0039C5.80101 28.0909 9.07374 27.0029 11.2062 25.6799C12.6859 24.7573 14.3919 23.2167 15.4103 21.8675C17.2381 19.4565 18.4393 16.2969 18.8832 12.7022C18.9441 12.1886 18.9964 10.944 18.9877 9.87335C18.9877 8.07161 18.9702 7.90623 18.7526 7.08805C18.4741 6.05227 17.7343 4.52036 17.1337 3.72829C15.7672 1.93525 13.6782 0.620937 11.4848 0.168327C10.4577 -0.0405712 8.63853 -0.0579796 7.68979 0.133511Z" fill="#6E00FF"/>
<path id="Vector_2" d="M29.006 0.0548916C26.7429 0.368238 24.3058 1.83052 22.8609 3.728C22.2603 4.52878 21.5205 6.05199 21.242 7.08777C21.0331 7.87113 21.007 8.10614 21.007 9.48138C21.007 10.8566 21.0331 11.0916 21.242 11.875C21.9035 14.3557 23.4528 16.3924 25.6897 17.7328C26.36 18.1332 27.3696 18.5423 28.1008 18.7077L28.5882 18.8208L28.3097 19.3083C27.683 20.4137 25.7071 23.434 24.3319 25.3924C23.9576 25.9233 23.8793 26.1061 23.8445 26.4891C23.801 27.0723 23.9924 27.5162 24.4277 27.8121C24.828 28.082 25.5331 28.0907 26.6994 27.8469C29.0147 27.3595 31.1994 26.3934 33.1752 25.0007C34.124 24.3218 35.9257 22.5114 36.6482 21.493C38.241 19.2473 39.4073 16.0704 39.7903 12.9195C40.2952 8.82858 39.9122 6.47849 38.3803 4.17191C36.9789 2.07423 34.7594 0.603247 32.2439 0.124523C31.5998 0.00266647 29.6849 -0.0408535 29.006 0.0548916Z" fill="#6E00FF"/>
</g>
</svg>
