<svg width="36" height="34" viewBox="0 0 36 34" fill="none" xmlns="http://www.w3.org/2000/svg">
<g id="Black">
<path id="Vector" d="M26.6401 1.05544C25.4212 1.29654 24.276 2.18058 23.6733 3.34591C23.392 3.87499 23.0705 4.97335 23.0705 5.37519C23.0705 5.5761 23.0437 5.60289 22.8562 5.64308C22.1798 5.78372 21.3292 6.50033 21.0211 7.18345C20.6662 7.96033 20.6662 8.7841 21.0345 8.95153C21.1484 8.99841 21.9587 9.0252 23.6799 9.0252H26.1579L26.3187 8.85777C26.4593 8.72383 26.4861 8.63006 26.4861 8.2885C26.4861 7.5451 26.1378 6.78161 25.5552 6.25923C25.2739 6.00473 24.7716 5.72344 24.4568 5.64977C24.276 5.60959 24.2693 5.5962 24.3162 5.28812C24.5372 3.78123 25.5485 2.56233 26.8277 2.26765C27.3233 2.15379 28.147 2.18058 28.6962 2.33462C30.0424 2.70297 31.1541 3.8549 31.4756 5.21445C31.5626 5.5828 31.576 6.54051 31.576 11.8849V18.1335H23.0035C14.6788 18.1335 14.431 18.1268 14.431 18.0063C14.431 17.9393 14.3238 17.6714 14.1966 17.4102C13.7613 16.5529 12.9442 15.9636 12.0535 15.8698C11.7655 15.843 11.665 15.7895 11.3503 15.5015C10.2385 14.4902 8.63116 14.4232 7.49932 15.3474C7.2917 15.5216 6.90326 15.9971 6.82959 16.1712C6.8229 16.1846 6.66216 16.131 6.46794 16.0573C5.42316 15.6555 4.19756 15.8497 3.41398 16.5329C3.07912 16.8275 2.68398 17.4437 2.59021 17.8187C2.51654 18.1134 2.50985 18.1134 2.18168 18.1536C1.77984 18.2005 1.54544 18.3143 1.24406 18.6157C0.909198 18.9439 0.768555 19.2921 0.768555 19.8279C0.768555 20.5579 1.04314 21.0468 1.6325 21.3683C1.90709 21.5223 2.09462 21.5625 2.56343 21.596L3.14609 21.6362L3.87609 24.5227C4.27123 26.11 4.67307 27.6436 4.76013 27.9249C5.27582 29.5524 6.85638 30.7244 8.5307 30.7244H8.99951L8.60437 31.5348C8.38336 31.9835 8.20253 32.4255 8.20253 32.5126C8.20253 32.7671 8.48382 33.0015 8.79859 33.0015C9.14685 33.0015 9.25401 32.8675 9.84337 31.6754L10.3055 30.7244H18.215H26.1178L26.6535 31.8027C26.9482 32.392 27.2429 32.9077 27.3032 32.9412C27.3635 32.9747 27.5041 33.0015 27.6112 33.0015C27.8657 33.0015 28.1604 32.6733 28.1604 32.392C28.1604 32.2849 27.993 31.8696 27.7988 31.4678L27.4304 30.7378L27.7653 30.6976C29.232 30.5034 30.5982 29.405 31.047 28.0589C31.0938 27.9249 31.4823 26.4247 31.9109 24.7303L32.6945 21.6496L33.2771 21.6027C34.4559 21.5022 35.0586 20.8995 35.0586 19.8279C35.0586 19.2921 34.918 18.9439 34.5831 18.6157C34.2215 18.2608 34.0072 18.1804 33.3709 18.1469L32.7816 18.1201V11.8247C32.7816 4.67867 32.8016 4.97335 32.2458 3.82811C31.576 2.44178 30.3103 1.44388 28.7632 1.08893C28.2944 0.98177 27.109 0.968376 26.6401 1.05544ZM24.5104 6.97584C24.785 7.14327 25.2136 7.61877 25.2136 7.76612C25.2136 7.7929 24.5238 7.81969 23.6733 7.81969C22.4209 7.81969 22.1329 7.7996 22.1329 7.72593C22.1329 7.67905 22.2534 7.49822 22.4008 7.33079C22.9299 6.73473 23.834 6.58739 24.5104 6.97584ZM10.1916 16.0774C10.426 16.198 10.714 16.486 10.8681 16.7405C10.9953 16.9548 11.2364 17.0418 11.7186 17.0552C12.2745 17.0619 12.6964 17.2896 13.0313 17.7518C13.1384 17.8991 13.2255 18.0464 13.2255 18.0799C13.2255 18.1067 11.1025 18.1335 8.50391 18.1335H3.78233L3.90958 17.879C4.17077 17.37 4.69986 17.0686 5.3428 17.0619C5.78482 17.0619 6.17326 17.216 6.58179 17.5709C6.88987 17.8321 7.16446 17.9058 7.39216 17.7852C7.58639 17.6848 7.61987 17.6178 7.8074 17.1088C8.12217 16.2449 8.83208 15.8029 9.68933 15.9301C9.85676 15.9569 10.0845 16.0239 10.1916 16.0774ZM33.6991 19.4864C33.9804 19.7475 33.8799 20.2097 33.5116 20.3369C33.2102 20.4441 2.617 20.4441 2.31563 20.3369C1.95397 20.2097 1.85351 19.781 2.12141 19.4931L2.26205 19.339H17.9069H33.545L33.6991 19.4864ZM31.3751 21.6898C31.3751 21.9309 30.0022 27.5432 29.8682 27.8245C29.5334 28.5679 28.8703 29.1505 28.1068 29.3849C27.6849 29.5189 27.4572 29.5189 17.9538 29.5189C7.36538 29.5189 7.99492 29.539 7.25822 29.1371C6.83629 28.9094 6.3273 28.3602 6.09959 27.8914C5.95895 27.6102 4.45206 21.9175 4.45206 21.6831C4.45206 21.6362 8.75841 21.6161 17.9136 21.6161C27.4907 21.6161 31.3751 21.6362 31.3751 21.6898Z" fill="#6E00FF"/>
<path id="Vector_2" d="M21.062 10.184C20.7405 10.3447 20.62 10.9073 20.8276 11.2957C20.9414 11.5167 21.0486 11.5703 21.3968 11.5703C21.7652 11.5703 21.9326 11.3426 21.9326 10.8403C21.9259 10.4452 21.859 10.3045 21.6179 10.1773C21.4303 10.0768 21.2696 10.0768 21.062 10.184Z" fill="#6E00FF"/>
<path id="Vector_3" d="M23.4056 10.1437C23.0775 10.2642 22.9234 10.7531 23.0708 11.1951C23.1645 11.4831 23.3052 11.5702 23.6601 11.5702C24.0419 11.5702 24.2093 11.3626 24.2093 10.8871C24.2093 10.4116 24.1691 10.3178 23.9347 10.1972C23.7405 10.0968 23.5797 10.0767 23.4056 10.1437Z" fill="#6E00FF"/>
<path id="Vector_4" d="M25.6285 10.1638C25.2736 10.3178 25.1865 11.1483 25.5013 11.4362C25.7022 11.6305 26.1509 11.6171 26.3384 11.4162C26.5326 11.2085 26.546 10.5254 26.3719 10.3044C26.238 10.137 25.8562 10.07 25.6285 10.1638Z" fill="#6E00FF"/>
<path id="Vector_5" d="M21.0611 12.4609C20.7932 12.5949 20.7195 12.8226 20.7396 13.3918C20.7664 14.0348 20.887 14.2022 21.3357 14.2022C21.5634 14.2022 21.6505 14.162 21.7777 14.0214C21.9117 13.8606 21.9317 13.7669 21.9317 13.2914C21.925 12.6953 21.8715 12.5547 21.5701 12.4408C21.3357 12.3538 21.2687 12.3538 21.0611 12.4609Z" fill="#6E00FF"/>
<path id="Vector_6" d="M23.3724 12.4408C23.138 12.5346 23.0576 12.6953 23.0241 13.1306C22.9772 13.72 23.0844 14.0347 23.3858 14.1553C23.647 14.2692 23.8412 14.229 24.0622 14.028C24.1894 13.9075 24.2095 13.8271 24.2095 13.3315C24.2095 12.6819 24.156 12.548 23.868 12.4475C23.6202 12.3604 23.5599 12.3604 23.3724 12.4408Z" fill="#6E00FF"/>
<path id="Vector_7" d="M25.6352 12.4745C25.4075 12.5749 25.2803 12.8696 25.2803 13.3116C25.2803 13.7737 25.4008 14.0483 25.6553 14.1555C25.9232 14.2693 26.1174 14.2292 26.3384 14.0282C26.4657 13.9077 26.4858 13.8273 26.4858 13.3317C26.4858 12.6821 26.4322 12.5481 26.1442 12.4477C25.883 12.3606 25.8964 12.3606 25.6352 12.4745Z" fill="#6E00FF"/>
<path id="Vector_8" d="M21.0077 15.0327C20.8738 15.0863 20.7264 15.4279 20.7264 15.6757C20.7264 16.3253 21.1417 16.6267 21.6574 16.3588C21.8918 16.2382 21.932 16.1445 21.932 15.6823C21.932 15.2135 21.7377 14.9858 21.3493 14.9925C21.2086 14.9925 21.0546 15.0126 21.0077 15.0327Z" fill="#6E00FF"/>
<path id="Vector_9" d="M23.2585 15.0528C23.0911 15.1533 22.9839 15.5551 23.0375 15.89C23.0911 16.2918 23.3322 16.4861 23.7072 16.4392C24.089 16.3856 24.2095 16.2048 24.2095 15.6958C24.2095 15.3475 24.1828 15.2538 24.0555 15.1332C23.8881 14.9725 23.4661 14.9323 23.2585 15.0528Z" fill="#6E00FF"/>
<path id="Vector_10" d="M25.4752 15.16C25.3479 15.3006 25.3145 15.4011 25.3145 15.7293C25.3145 16.245 25.4752 16.4258 25.9239 16.4258C26.3525 16.4258 26.4865 16.2517 26.4865 15.6958C26.4865 15.3475 26.4597 15.2538 26.3324 15.1332C26.1047 14.9189 25.6895 14.9323 25.4752 15.16Z" fill="#6E00FF"/>
</g>
</svg>
