<svg width="26" height="30" viewBox="0 0 26 30" fill="none" xmlns="http://www.w3.org/2000/svg">
<g id="Black">
<path id="Vector" d="M12.3682 1.08503C11.9429 1.24231 11.6225 1.44621 10.9992 1.96467C10.6963 2.21516 10.3642 2.47148 10.2593 2.52391C10.0147 2.64624 9.6768 2.64042 8.82629 2.49478C6.98545 2.17439 6.33883 2.57051 5.6922 4.40553C5.33103 5.4308 5.23782 5.52401 4.19507 5.90849C3.2863 6.24054 3.06493 6.35705 2.72706 6.67162C2.16199 7.20174 2.06296 7.73768 2.28432 9.12996C2.48821 10.3999 2.53482 10.2601 1.50954 11.5126C0.991075 12.1417 0.839614 12.4854 0.816312 13.0913C0.793011 13.5573 0.804661 13.5981 1.00273 13.9942C1.11341 14.2272 1.43381 14.6874 1.71343 15.0253C1.99305 15.3632 2.27267 15.7477 2.33093 15.8875C2.45326 16.1554 2.45326 16.1671 2.2552 17.3438C2.12121 18.1477 2.12121 18.34 2.23189 18.7769C2.42413 19.5167 2.84356 19.8662 4.12516 20.3497C5.01063 20.6876 5.23199 20.8041 5.23199 20.9381C5.23199 20.9905 4.71936 22.645 4.09603 24.6256C3.47271 26.6004 2.96007 28.3073 2.96007 28.4122C2.96007 28.5578 3.0125 28.6626 3.15814 28.8083L3.3562 29.0063H6.39126H9.42631L9.60107 28.8491C9.75836 28.7034 9.85739 28.4413 10.4341 26.6063C10.8011 25.4587 11.1099 24.5091 11.1273 24.4916C11.1448 24.4742 11.3312 24.5848 11.5409 24.7421C12.0478 25.1266 12.3798 25.2489 12.9216 25.2489C13.4633 25.2489 13.7954 25.1266 14.3022 24.7421C14.5119 24.5848 14.6983 24.4742 14.7158 24.4916C14.7333 24.5091 15.042 25.4587 15.409 26.6063C15.9858 28.4413 16.0848 28.7034 16.2421 28.8432L16.4168 29.0063H19.4519H22.4869L22.685 28.8083C22.8306 28.6626 22.8831 28.5578 22.8831 28.4122C22.8831 28.3073 22.3704 26.6004 21.7471 24.6198C21.1238 22.6391 20.6111 20.9789 20.6111 20.9381C20.6111 20.8041 20.8442 20.6876 21.718 20.3497C22.9005 19.9012 23.2559 19.6449 23.5239 19.0332C23.7045 18.6138 23.7219 18.1652 23.5879 17.3263C23.518 16.9069 23.4481 16.47 23.4307 16.3535C23.3841 16.0389 23.5472 15.7244 24.1297 15.0253C24.4093 14.6874 24.7297 14.2272 24.8404 13.9942C25.0385 13.6039 25.0501 13.5515 25.0327 13.0913C25.0035 12.4971 24.8404 12.1301 24.3161 11.4951C23.3083 10.2659 23.3549 10.3999 23.5588 9.12996C23.7802 7.73768 23.6812 7.20174 23.1161 6.67162C22.7782 6.35705 22.5568 6.24054 21.6481 5.90849C20.6053 5.52401 20.5121 5.4308 20.1509 4.40553C19.5043 2.57051 18.8577 2.17439 17.0169 2.49478C15.776 2.71033 15.6945 2.68702 14.7857 1.91806C13.8129 1.09668 13.0672 0.834534 12.3682 1.08503ZM13.3585 2.48313C13.4866 2.56469 13.7488 2.7744 13.941 2.93752C15.1061 3.95114 15.5488 4.06183 17.2324 3.78803C18.4266 3.58997 18.4557 3.60744 18.9451 4.92399C19.4694 6.31627 19.7606 6.61337 21.1063 7.1027C21.7413 7.3299 22.0559 7.48136 22.2306 7.64447C22.3996 7.80176 22.3996 8.15128 22.2364 9.10083C21.9918 10.5222 22.1025 10.8951 23.1918 12.2C23.5763 12.6543 23.7569 12.9689 23.7569 13.1786C23.7569 13.3534 23.5297 13.6913 22.9705 14.3554C22.1374 15.3399 22.0093 15.8409 22.2364 17.1749C22.3005 17.571 22.3588 18.0312 22.3588 18.1943C22.3588 18.6604 22.219 18.7711 21.2112 19.1381C19.7548 19.6682 19.4519 19.9653 18.9392 21.3692C18.5781 22.377 18.4033 22.5984 17.9781 22.5984C17.879 22.5984 17.4829 22.5459 17.0926 22.476C16.6382 22.4003 16.2129 22.3653 15.8925 22.377C15.2459 22.4003 14.8614 22.5867 14.0109 23.2858C13.6672 23.5712 13.2827 23.8508 13.1546 23.9091C12.9332 24.0081 12.9099 24.0081 12.6886 23.9091C12.5604 23.8508 12.1759 23.5712 11.8322 23.2858C10.9817 22.5867 10.5972 22.4003 9.9506 22.377C9.6302 22.3653 9.20494 22.4003 8.75056 22.476C8.36025 22.5459 7.96412 22.5984 7.86509 22.5984C7.43983 22.5984 7.26507 22.377 6.90389 21.3692C6.39708 19.9711 6.08251 19.6623 4.63197 19.1381C3.62417 18.7711 3.48436 18.6604 3.48436 18.1943C3.48436 18.0312 3.54262 17.571 3.6067 17.1749C3.83389 15.8409 3.70573 15.3399 2.87269 14.3554C2.31345 13.6913 2.08626 13.3534 2.08626 13.1786C2.08626 12.9689 2.26685 12.6543 2.65133 12.2C3.74068 10.8951 3.85137 10.5222 3.6067 9.10083C3.44358 8.15128 3.44358 7.80176 3.61252 7.64447C3.78729 7.48136 4.10186 7.3299 4.73683 7.1027C6.08251 6.61337 6.3563 6.33957 6.89224 4.93564C7.40488 3.58997 7.41071 3.58997 8.61075 3.78803C10.2943 4.06183 10.737 3.95114 11.9021 2.93752C12.4264 2.48313 12.6886 2.32585 12.9216 2.32585C13.0497 2.32585 13.2187 2.3841 13.3585 2.48313ZM6.71166 23.5829C6.82234 23.6586 7.01458 23.7518 7.13691 23.7984C7.46314 23.9091 8.26122 23.8974 9.00688 23.7576C9.36805 23.6935 9.74088 23.6469 9.82826 23.6586L9.98555 23.6761L9.35058 25.6975L8.70978 27.7248H6.58932C5.42423 27.7248 4.48051 27.7073 4.49216 27.6781C4.50964 27.6548 4.85334 26.5771 5.26112 25.2781C5.6689 23.979 6.01843 22.8955 6.03008 22.8722C6.04756 22.8489 6.15824 22.9654 6.28057 23.1343C6.40291 23.3032 6.59515 23.5071 6.71166 23.5829ZM20.582 25.2781C20.9898 26.5771 21.3335 27.6548 21.351 27.6781C21.3626 27.7073 20.4189 27.7248 19.2538 27.7248H17.1392L16.4984 25.6975L15.8576 23.6761L16.0207 23.6586C16.1081 23.6469 16.4809 23.6935 16.8479 23.7576C17.611 23.8974 18.38 23.9091 18.7062 23.7984C19.0499 23.6761 19.3645 23.4314 19.5742 23.1227C19.6791 22.9654 19.7839 22.8547 19.8014 22.878C19.8247 22.9013 20.1742 23.979 20.582 25.2781Z" fill="#6E00FF"/>
<path id="Vector_2" d="M11.6978 5.44225C10.9113 5.57041 10.2065 5.7976 9.45499 6.17043C7.24715 7.26561 5.74418 9.24626 5.25485 11.7337C5.11504 12.4386 5.11504 13.8658 5.25485 14.5765C5.884 17.8038 8.40058 20.2738 11.6046 20.8214C12.2687 20.9321 13.5736 20.9321 14.2377 20.8214C17.2494 20.3088 19.7019 18.0543 20.4651 15.095C21.1758 12.3629 20.3427 9.45015 18.2805 7.49281C16.5387 5.83256 14.0804 5.06942 11.6978 5.44225ZM13.6784 6.69472C16.5154 7.06172 18.7815 9.19383 19.3058 11.9784C19.434 12.6774 19.3932 14.0464 19.2242 14.6872C18.5893 17.0465 16.8416 18.8116 14.5115 19.435C13.9988 19.5748 13.8415 19.5922 12.9211 19.5922C12.0007 19.5922 11.8434 19.5748 11.3308 19.435C9.0006 18.8116 7.25297 17.0465 6.618 14.6872C6.44906 14.0464 6.40828 12.6774 6.53644 11.9784C7.16559 8.62877 10.3638 6.26946 13.6784 6.69472Z" fill="#6E00FF"/>
<path id="Vector_3" d="M12.6592 8.49496C12.4553 8.58234 12.3621 8.73963 11.8494 9.83481C11.5698 10.429 11.331 10.9242 11.3193 10.9416C11.3019 10.9533 10.7484 11.0523 10.0843 11.1572C8.9076 11.3436 8.86682 11.3494 8.71536 11.5242C8.5406 11.7223 8.49982 12.0135 8.61633 12.2465C8.65128 12.3164 9.05323 12.7534 9.51344 13.2194L10.3465 14.0641L10.061 15.2874C9.88045 16.0447 9.78141 16.5748 9.80472 16.6855C9.82219 16.7787 9.90375 16.9302 9.99113 17.0176C10.1135 17.1457 10.2008 17.1807 10.4047 17.1807C10.6203 17.1807 10.8649 17.0817 11.7912 16.604L12.9213 16.0272L14.0515 16.604C15.3156 17.2506 15.5078 17.2972 15.8282 17.0292C16.1078 16.7962 16.102 16.6447 15.7816 15.2874L15.4962 14.0641L16.3292 13.2194C16.7894 12.7534 17.1914 12.3164 17.2263 12.2465C17.337 12.0252 17.3021 11.7281 17.1448 11.5358C16.9758 11.3378 16.8768 11.3145 15.5719 11.1222C15.1233 11.0582 14.7039 10.9941 14.634 10.9766C14.5408 10.9591 14.3893 10.6853 14.0049 9.85811C13.7252 9.25226 13.434 8.70467 13.3641 8.62894C13.2184 8.47748 12.8514 8.4134 12.6592 8.49496ZM13.2534 11.3494C13.4398 11.7514 13.6029 12.0193 13.6961 12.0834C13.8068 12.1533 14.9602 12.3922 15.2515 12.4038C15.2632 12.4038 15.0651 12.6194 14.8088 12.8815C14.0515 13.6563 14.0515 13.6446 14.2903 14.6408C14.3719 14.9787 14.4359 15.2699 14.4359 15.2874C14.4359 15.2991 14.1155 15.1593 13.7311 14.967C13.3408 14.7748 12.9738 14.6175 12.9213 14.6175C12.8689 14.6175 12.5019 14.7748 12.1058 14.967C11.4533 15.2874 11.3951 15.3107 11.43 15.1884C11.5815 14.6233 11.7096 13.8078 11.6747 13.6679C11.6514 13.5747 11.4009 13.2602 11.1038 12.9514C10.8125 12.6485 10.5853 12.4038 10.597 12.4038C10.8941 12.3864 12.0359 12.1533 12.1465 12.0834C12.2397 12.0193 12.4029 11.7514 12.5893 11.3494C12.7524 10.9999 12.9038 10.7144 12.9213 10.7144C12.9388 10.7144 13.0903 10.9999 13.2534 11.3494Z" fill="#6E00FF"/>
</g>
</svg>
