<svg width="37" height="26" viewBox="0 0 37 26" fill="none" xmlns="http://www.w3.org/2000/svg">
<g id="Black">
<path id="Vector" d="M28.3319 0.375273C27.817 0.628849 27.7402 0.813269 27.21 3.24146C26.7028 5.53901 26.6875 5.76954 26.9718 5.8848C27.0409 5.90785 27.4943 5.9309 27.9784 5.9309H28.8544V7.46773V9.00456H27.4712C26.188 9.00456 26.0804 9.01224 25.9344 9.15824C25.8499 9.24277 25.7807 9.38108 25.7807 9.46561C25.7807 9.55013 25.8499 9.68845 25.9344 9.77297C26.0881 9.92666 26.188 9.92666 30.9675 9.92666H35.847V11.6172V13.3077H32.9039C30.7139 13.3077 29.9378 13.3307 29.8687 13.3999C29.7457 13.5228 29.7457 13.9378 29.8687 14.0607C29.9378 14.1299 30.7139 14.1529 32.9039 14.1529H35.847V15.8434V17.534H33.2728H30.6986L30.5679 17.7337C30.4527 17.9182 30.4527 17.9566 30.5526 18.141C30.6678 18.3408 30.6678 18.3408 31.8512 18.3792C33.1114 18.4253 33.3803 18.4868 33.8875 18.871C34.2487 19.1476 34.5406 19.747 34.5944 20.3387C34.6559 21.0379 34.7481 21.0917 35.7778 21.0533C36.4386 21.0379 36.5693 21.0072 36.6615 20.8842C36.7537 20.7536 36.769 19.8315 36.769 15.0212C36.769 9.41182 36.769 9.31192 36.6154 9.15824C36.4694 9.01224 36.3618 9.00456 33.9643 9.00456H31.467V7.46773V5.9309H32.3737C33.3496 5.9309 33.6186 5.84638 33.6186 5.52364C33.6186 5.33154 32.7272 1.25895 32.6273 1.00537C32.5505 0.797899 32.2124 0.459799 31.9511 0.329168C31.8435 0.275379 31.2211 0.244642 30.1837 0.244642C28.8621 0.244642 28.5393 0.267694 28.3319 0.375273ZM31.6898 1.2359C31.7744 1.32042 31.8819 1.58168 31.928 1.83526C31.9818 2.08115 32.1586 2.8803 32.3199 3.61798C32.4813 4.35566 32.6196 4.9627 32.6196 4.97807C32.6196 4.99344 31.5285 5.00881 30.1991 5.00881C28.2166 5.00881 27.7786 4.99344 27.7786 4.90123C27.7786 4.84744 27.9477 4.03292 28.1551 3.09546C28.3933 2.00431 28.5778 1.33579 28.6623 1.24358C28.7929 1.10527 28.9082 1.0899 30.1761 1.0899C31.4209 1.0899 31.5592 1.10527 31.6898 1.2359ZM30.6217 7.46773V9.00456H30.1991H29.7765V7.46773V5.9309H30.1991H30.6217V7.46773ZM35.847 19.2629V20.1466H35.6548C35.5165 20.1466 35.4627 20.1081 35.4627 19.9929C35.4627 19.7086 35.1631 18.9632 34.9249 18.6712L34.6866 18.3792H35.2706H35.847V19.2629Z" fill="#6E00FF"/>
<path id="Vector_2" d="M6.92356 3.5948C6.65462 3.67933 6.42409 3.8407 6.10904 4.14806C5.48663 4.77048 5.41747 5.02406 5.41747 6.64541V7.94403L5.14853 8.25908C4.57222 8.9276 4.3878 10.0956 4.75663 10.7411L4.93337 11.0561L4.10348 11.6017C3.05076 12.3009 1.75214 13.3613 1.12204 14.0375C0.584148 14.6139 0.238362 15.2593 0.115416 15.9125C0.0693108 16.1661 0.0385742 18.1178 0.0385742 20.9149C0.0385742 25.2641 0.0462584 25.51 0.176889 25.6252C0.292151 25.7328 0.499622 25.7559 1.36793 25.7559C2.04413 25.7559 2.42834 25.7251 2.46676 25.6713C2.48981 25.6252 2.58202 25.3255 2.65886 25.0028C2.99697 23.6581 3.69622 22.6668 4.63369 22.2058L5.14853 21.9522H14.7921H24.4357L24.9505 22.2058C25.9187 22.6822 26.6103 23.6581 26.9254 24.9874C27.0099 25.3409 27.1252 25.656 27.1789 25.6944C27.2327 25.7251 27.7322 25.7559 28.2931 25.7559C29.1077 25.7559 29.3305 25.7328 29.4227 25.6329C29.5303 25.5253 29.5457 24.9874 29.5457 20.8841C29.5457 18.187 29.5149 16.0815 29.4688 15.851C29.3459 15.1902 29.0231 14.6292 28.4007 13.9761C27.6861 13.2307 26.472 12.2395 25.4193 11.5633L24.6432 11.0561L24.7815 10.8563C25.2502 10.1955 25.0812 8.98907 24.405 8.21297L24.1821 7.9594L24.1514 6.50709C24.1283 5.18542 24.113 5.01637 23.9593 4.73974C23.7365 4.3248 23.2908 3.89449 22.8681 3.68702L22.5147 3.51028L14.9074 3.49491C8.29902 3.47954 7.25398 3.49491 6.92356 3.5948ZM22.5147 4.5169C22.6837 4.60143 22.9296 4.82427 23.0526 5.001C23.2754 5.32374 23.2831 5.35447 23.3061 6.39183L23.3292 7.45224L22.8451 7.29087C22.384 7.12951 22.2227 7.12182 19.441 7.12182H16.521L16.0754 7.3293C15.8295 7.44456 15.453 7.72119 15.2071 7.96708L14.7767 8.38971L14.4386 8.0055C14.2158 7.76729 13.9008 7.53677 13.578 7.3754L13.0632 7.12182H10.1432C7.36156 7.12182 7.20019 7.12951 6.73914 7.29087L6.24736 7.45224L6.27809 6.44562C6.30115 5.31605 6.40872 4.98563 6.82367 4.68595C7.34619 4.30943 7.13872 4.3248 14.9074 4.34017C22.1458 4.35554 22.2073 4.35554 22.5147 4.5169ZM12.848 8.04392C13.7163 8.2975 14.3311 9.15044 14.3311 10.0956V10.6181H10.0971H5.86315L5.64031 10.3953C5.07937 9.82664 5.6941 8.6356 6.74683 8.24371C7.46145 7.98245 7.85334 7.94403 10.2277 7.93634C12.0028 7.92866 12.5407 7.95171 12.848 8.04392ZM22.4378 8.09771C23.4829 8.41276 24.0131 8.90454 24.136 9.68833C24.1975 10.0802 24.0669 10.4106 23.8133 10.5336C23.675 10.5951 22.384 10.6181 19.441 10.6181H15.2532V10.1724C15.2532 9.50391 15.4453 9.03518 15.9063 8.56644C16.5364 7.94403 16.6133 7.92866 19.5563 7.9594C21.5004 7.97476 22.1382 8.0055 22.4378 8.09771ZM24.3435 11.9398C26.1339 13.0309 28.0165 14.6753 28.4007 15.4975C28.6005 15.9125 28.6236 16.0354 28.6236 16.7808V17.6107H14.7921H0.960671V16.8423C0.960671 15.6512 1.0913 15.3823 2.14403 14.3449C3.01234 13.4843 3.92675 12.7774 5.20231 11.9782L5.90157 11.5402H14.7921H23.6827L24.3435 11.9398ZM28.6236 19.8007V21.0685H14.7921H0.960671V19.8007V18.5328H14.7921H28.6236V19.8007ZM3.03539 22.2749C2.57434 22.7975 2.21319 23.4506 1.95961 24.2113L1.73677 24.8722L1.34488 24.8952L0.960671 24.9183V23.4199V21.9138H2.1594H3.35812L3.03539 22.2749ZM28.6236 23.4199V24.9183L28.224 24.8952L27.8321 24.8722L27.7015 24.3804C27.5094 23.6888 27.0637 22.8436 26.6103 22.3441L26.2261 21.9138H27.4248H28.6236V23.4199Z" fill="#6E00FF"/>
<path id="Vector_3" d="M30.7985 11.2789C30.6833 11.4633 30.6833 11.5017 30.7832 11.6861C30.8677 11.8398 30.9522 11.8859 31.1597 11.8859C31.3671 11.8859 31.4517 11.8398 31.5362 11.6861C31.6361 11.5017 31.6361 11.4633 31.5208 11.2789C31.4286 11.1406 31.321 11.0791 31.1597 11.0791C30.9983 11.0791 30.8907 11.1406 30.7985 11.2789Z" fill="#6E00FF"/>
<path id="Vector_4" d="M30.8219 15.6589C30.6682 15.8126 30.6682 15.9893 30.8219 16.2121C31.0524 16.5502 31.621 16.3351 31.621 15.9048C31.621 15.7127 31.4059 15.5359 31.16 15.5359C31.037 15.5359 30.8833 15.5897 30.8219 15.6589Z" fill="#6E00FF"/>
</g>
</svg>
