<svg width="114" height="26" viewBox="0 0 114 26" fill="none" xmlns="http://www.w3.org/2000/svg">
<g id="Group 54">
<path id="Star 1" d="M12.0489 2.92705C12.3483 2.00574 13.6517 2.00574 13.9511 2.92705L15.6942 8.29179C15.828 8.70382 16.212 8.98278 16.6452 8.98278H22.2861C23.2548 8.98278 23.6576 10.2224 22.8738 10.7918L18.3103 14.1074C17.9598 14.362 17.8132 14.8134 17.947 15.2254L19.6902 20.5902C19.9895 21.5115 18.935 22.2776 18.1513 21.7082L13.5878 18.3926C13.2373 18.138 12.7627 18.138 12.4122 18.3926L7.84869 21.7082C7.06498 22.2776 6.0105 21.5115 6.30985 20.5902L8.05296 15.2254C8.18683 14.8134 8.04018 14.362 7.68969 14.1074L3.12616 10.7918C2.34245 10.2224 2.74523 8.98278 3.71395 8.98278H9.35477C9.788 8.98278 10.172 8.70382 10.3058 8.2918L12.0489 2.92705Z" fill="#FFCB2B"/>
<path id="Star 2" d="M34.0489 2.92705C34.3483 2.00574 35.6517 2.00574 35.9511 2.92705L37.6942 8.29179C37.828 8.70382 38.212 8.98278 38.6452 8.98278H44.2861C45.2548 8.98278 45.6576 10.2224 44.8738 10.7918L40.3103 14.1074C39.9598 14.362 39.8132 14.8134 39.947 15.2254L41.6902 20.5902C41.9895 21.5115 40.935 22.2776 40.1513 21.7082L35.5878 18.3926C35.2373 18.138 34.7627 18.138 34.4122 18.3926L29.8487 21.7082C29.065 22.2776 28.0105 21.5115 28.3098 20.5902L30.053 15.2254C30.1868 14.8134 30.0402 14.362 29.6897 14.1074L25.1262 10.7918C24.3425 10.2224 24.7452 8.98278 25.7139 8.98278H31.3548C31.788 8.98278 32.172 8.70382 32.3058 8.2918L34.0489 2.92705Z" fill="#FFCB2B"/>
<path id="Star 3" d="M56.0489 2.92705C56.3483 2.00574 57.6517 2.00574 57.9511 2.92705L59.6942 8.29179C59.828 8.70382 60.212 8.98278 60.6452 8.98278H66.2861C67.2548 8.98278 67.6576 10.2224 66.8738 10.7918L62.3103 14.1074C61.9598 14.362 61.8132 14.8134 61.947 15.2254L63.6902 20.5902C63.9895 21.5115 62.935 22.2776 62.1513 21.7082L57.5878 18.3926C57.2373 18.138 56.7627 18.138 56.4122 18.3926L51.8487 21.7082C51.065 22.2776 50.0105 21.5115 50.3098 20.5902L52.053 15.2254C52.1868 14.8134 52.0402 14.362 51.6897 14.1074L47.1262 10.7918C46.3425 10.2224 46.7452 8.98278 47.7139 8.98278H53.3548C53.788 8.98278 54.172 8.70382 54.3058 8.2918L56.0489 2.92705Z" fill="#FFCB2B"/>
<path id="Star 4" d="M78.0489 2.92705C78.3483 2.00574 79.6517 2.00574 79.9511 2.92705L81.6942 8.29179C81.828 8.70382 82.212 8.98278 82.6452 8.98278H88.2861C89.2548 8.98278 89.6576 10.2224 88.8738 10.7918L84.3103 14.1074C83.9598 14.362 83.8132 14.8134 83.947 15.2254L85.6902 20.5902C85.9895 21.5115 84.935 22.2776 84.1513 21.7082L79.5878 18.3926C79.2373 18.138 78.7627 18.138 78.4122 18.3926L73.8487 21.7082C73.065 22.2776 72.0105 21.5115 72.3098 20.5902L74.053 15.2254C74.1868 14.8134 74.0402 14.362 73.6897 14.1074L69.1262 10.7918C68.3425 10.2224 68.7452 8.98278 69.7139 8.98278H75.3548C75.788 8.98278 76.172 8.70382 76.3058 8.2918L78.0489 2.92705Z" fill="#FFCB2B"/>
<path id="Star 5" d="M100.049 2.92705C100.348 2.00574 101.652 2.00574 101.951 2.92705L103.694 8.29179C103.828 8.70382 104.212 8.98278 104.645 8.98278H110.286C111.255 8.98278 111.658 10.2224 110.874 10.7918L106.31 14.1074C105.96 14.362 105.813 14.8134 105.947 15.2254L107.69 20.5902C107.99 21.5115 106.935 22.2776 106.151 21.7082L101.588 18.3926C101.237 18.138 100.763 18.138 100.412 18.3926L95.8487 21.7082C95.065 22.2776 94.0105 21.5115 94.3098 20.5902L96.053 15.2254C96.1868 14.8134 96.0402 14.362 95.6897 14.1074L91.1262 10.7918C90.3425 10.2224 90.7452 8.98278 91.7139 8.98278H97.3548C97.788 8.98278 98.172 8.70382 98.3058 8.2918L100.049 2.92705Z" fill="#FFCB2B"/>
</g>
</svg>
