<svg width="19" height="19" viewBox="0 0 19 19" fill="none" xmlns="http://www.w3.org/2000/svg">
<g id="Black">
<path id="Vector" d="M4.26482 0.17819C2.17638 0.53359 0.520279 2.13473 0.0659508 4.23783C0.00366394 4.51629 0 4.89367 0 9.5029C0 14.1121 0.00366394 14.4895 0.0659508 14.768C0.282123 15.7829 0.754771 16.6512 1.48389 17.3804C2.21302 18.1095 3.08137 18.5821 4.09628 18.7983C4.37474 18.8606 4.75212 18.8643 9.36135 18.8643C13.9706 18.8643 14.348 18.8606 14.6264 18.7983C15.6413 18.5821 16.5097 18.1095 17.2388 17.3804C17.9679 16.6512 18.4406 15.7829 18.6568 14.768C18.719 14.4895 18.7227 14.1121 18.7227 9.5029C18.7227 4.89367 18.719 4.51629 18.6568 4.23783C18.4406 3.22292 17.9679 2.35457 17.2388 1.62544C16.5243 0.910976 15.7073 0.463976 14.6557 0.2075C14.4212 0.148878 13.9706 0.145214 9.47127 0.137886C5.59116 0.130558 4.48466 0.14155 4.26482 0.17819ZM15.1687 2.55975C15.9528 2.76493 16.4657 3.52703 16.3265 4.28912C16.2239 4.86803 15.8392 5.31503 15.2786 5.51288C14.9489 5.62646 14.5202 5.60081 14.1868 5.44326C13.4796 5.11351 13.1169 4.30744 13.3514 3.59298C13.6115 2.81622 14.4066 2.36189 15.1687 2.55975ZM10.3506 4.48331C12.3988 4.901 13.9449 6.44718 14.3846 8.51731C14.5019 9.05957 14.5019 9.94624 14.3846 10.4885C13.9449 12.5623 12.4207 14.0865 10.347 14.5262C9.80469 14.6434 8.91802 14.6434 8.37576 14.5262C6.30197 14.0865 4.77777 12.5623 4.3381 10.4885C4.22085 9.94624 4.22085 9.05957 4.3381 8.51731C4.81075 6.30429 6.55112 4.69216 8.78245 4.41003C9.17816 4.3624 9.92194 4.39538 10.3506 4.48331Z" fill="white"/>
<path id="Vector_2" d="M14.6117 3.62573C14.5458 3.6587 14.4579 3.73931 14.4175 3.80526C14.1611 4.21929 14.6447 4.70293 15.0587 4.44645C15.187 4.36584 15.2969 4.17898 15.2969 4.03609C15.2969 3.83457 15.0221 3.56711 14.8206 3.56711C14.7693 3.56711 14.674 3.59642 14.6117 3.62573Z" fill="white"/>
<path id="Vector_3" d="M8.94003 5.47236C7.36088 5.63357 6.01621 6.72176 5.50326 8.25695C5.25045 9.01172 5.25778 10.0303 5.52158 10.8034C5.93194 12.0052 6.89189 12.9504 8.11565 13.3608C8.84477 13.6063 9.878 13.6063 10.6071 13.3608C12.0177 12.8882 13.029 11.756 13.3368 10.2904C13.421 9.89473 13.421 9.11064 13.3368 8.71494C13.029 7.24937 12.0177 6.11721 10.6071 5.64456C10.1491 5.49068 9.45665 5.42106 8.94003 5.47236Z" fill="white"/>
</g>
</svg>
