<svg width="25" height="17" viewBox="0 0 25 17" fill="none" xmlns="http://www.w3.org/2000/svg">
<g id="Black">
<path id="Vector" d="M8.99435 0.0273361C6.35166 0.113235 4.47701 0.249664 3.60285 0.426519C2.51141 0.648848 1.61704 1.43711 1.27344 2.47802C0.889417 3.62504 0.646875 7.14189 0.752987 9.91596C0.874258 12.9376 1.11175 14.4485 1.59178 15.171C2.15771 16.025 2.88028 16.4444 4.09299 16.6212C6.2506 16.9345 11.7482 17.081 16.3464 16.9547C20.0856 16.8486 21.9299 16.6869 22.7131 16.3938C23.0921 16.2524 23.653 15.8431 23.9309 15.5045C24.5069 14.8022 24.709 13.9684 24.9213 11.4723C25.0072 10.4617 25.0072 6.42437 24.9213 5.40873C24.8 3.94337 24.6534 3.03384 24.4513 2.41738C24.1734 1.57859 23.3548 0.790331 22.4857 0.532631C21.8238 0.330513 20.3382 0.178925 18.0391 0.0778656C16.4677 0.00712395 10.6871 -0.0282478 8.99435 0.0273361ZM13.5723 6.68713C15.2095 7.62697 16.5839 8.42029 16.6294 8.44555C16.695 8.48092 15.9977 8.90032 13.638 10.2596C11.9453 11.2297 10.5355 12.0331 10.5102 12.0433C10.4749 12.0584 10.4597 10.8154 10.4597 8.49103C10.4597 5.47947 10.4698 4.92365 10.5304 4.94386C10.5658 4.95902 11.9352 5.74222 13.5723 6.68713Z" fill="white"/>
</g>
</svg>
